<svg id="Calque_1" data-name="Calque 1" xmlns="http://www.w3.org/2000/svg" viewBox="0 0 205.41 108.26"><defs><style>.cls-1{fill:none;stroke:#6d2062;stroke-miterlimit:10;stroke-width:5px;}</style></defs><title>loader2</title><path class="cls-1" d="M88,39.08,55.81,6.56l-.14-.15a13.61,13.61,0,0,0-19.25.15L11.63,31.36C-.54,44-.54,64.27,11.63,76.44l24.8,24.8a1.85,1.85,0,0,0,.14.14,13.6,13.6,0,0,0,19.24-.14l31.6-31.3" transform="translate(0 0)"/><path class="cls-1" d="M117.61,39.3,149.59,7a13.6,13.6,0,0,1,19.24-.14L169,7l24.8,24.8C206,44,206,64.27,193.78,76.9L169,101.7a13.61,13.61,0,0,1-19.24.14l-.15-.14L118.24,70" transform="translate(0 0)"/><path class="cls-1" d="M88,39.08a8.07,8.07,0,0,0-2.91,6.25v19a8.06,8.06,0,0,0,2.29,5.61" transform="translate(0 0)"/><path class="cls-1" d="M88,39.08a8,8,0,0,1,5.14-1.86h19a8,8,0,0,1,5.44,2.08" transform="translate(0 0)"/><path class="cls-1" d="M118.24,70a8.54,8.54,0,0,1-6.07,2.34H93.23a8.08,8.08,0,0,1-5.82-2.44" transform="translate(0 0)"/><path class="cls-1" d="M117.61,39.3a8,8,0,0,1,2.67,6,.08.08,0,0,1,0,.07V64.27a7,7,0,0,1-2,5.77" transform="translate(0 0)"/></svg>