<svg xmlns="http://www.w3.org/2000/svg" viewBox="-4240.559 -6366.337 205.405 108.246">
    <defs>
        <style>
            .a {
                fill:none;
                opacity:0.9;
            }

            .a,
            .b {
                stroke:#700961;
                stroke-miterlimit:10;
                stroke-width:5px;
                stroke-dasharray:100;
                animation: dash 6s ease-in-out infinite alternate;
            }

            .b {
                fill:#FFF;
            }

            @keyframes dash {
                to {
                    stroke-dashoffset: 1000;
                }
            }
        </style>
    </defs>
    <g transform="translate(-4268.434 -6396.737)">
        <path class="a" d="M24.6,64.4l46.889-47.34a13.607,13.607,0,0,1,19.387,0l24.8,24.8c12.173,12.173,12.173,32.462,0,45.085l-24.8,24.8a13.607,13.607,0,0,1-19.387,0Z" transform="translate(105.977 20.351)" />
        <path class="a" d="M103.028,64.748l-47.34,46.889a13.607,13.607,0,0,1-19.387,0L11.5,86.84C-.668,74.667-.668,54.379,11.5,41.755l24.8-24.8a13.607,13.607,0,0,1,19.387,0Z" transform="translate(28 20)" />
        <path class="b" d="M47.751,55.767H28.815A8.082,8.082,0,0,1,20.7,47.651V28.715A8.082,8.082,0,0,1,28.815,20.6H47.751a8.082,8.082,0,0,1,8.115,8.115V47.651C56.317,52.16,52.711,55.767,47.751,55.767Z" transform="translate(92.294 47.016)" />
    </g>
</svg>