<?xml version="1.0" encoding="utf-8"?>
<!-- Generator: Adobe Illustrator 22.0.1, SVG Export Plug-In . SVG Version: 6.00 Build 0)  -->
<svg version="1.1" id="Calque_1" xmlns="http://www.w3.org/2000/svg" xmlns:xlink="http://www.w3.org/1999/xlink" x="0px" y="0px"
	 viewBox="0 0 205.4 108.2" style="enable-background:new 0 0 205.4 108.2;" xml:space="preserve">
<style type="text/css">
	.st0{fill:none;stroke:#FFFFFF;stroke-width:5;stroke-miterlimit:10;}
</style>
<g>
	<path class="st0" d="M117.6,39.3l32-32.3c5.3-5.4,13.9-5.4,19.2-0.1c0,0,0.1,0.1,0.1,0.1l24.8,24.8c12.2,12.2,12.2,32.5,0,45.1
		L169,101.7c-5.3,5.4-13.9,5.4-19.2,0.1c0,0-0.1-0.1-0.1-0.1L118.2,70"/>
	<path class="st0" d="M88,39.1L55.8,6.6c0,0-0.1-0.1-0.1-0.1c-5.4-5.3-14-5.2-19.2,0.1L11.6,31.4C-0.5,44-0.5,64.3,11.6,76.4
		l24.8,24.8c0,0,0.1,0.1,0.1,0.1c5.4,5.3,14,5.2,19.2-0.1l31.6-31.3"/>
	<path class="st0" d="M117.6,39.3c1.6,1.5,2.7,3.6,2.7,6c0,0,0,0,0,0.1v18.9c0.2,2.3-0.6,4.3-2,5.8c-1.5,1.5-3.6,2.3-6.1,2.3H93.2
		c-2.3,0-4.3-0.9-5.8-2.4c-1.4-1.4-2.3-3.4-2.3-5.6c0,0,0,0,0-0.1V45.3c0-2.5,1.1-4.8,2.9-6.2c1.4-1.2,3.2-1.9,5.1-1.9
		c0,0,0,0,0.1,0h18.9C114.3,37.2,116.2,38,117.6,39.3z"/>
</g>
</svg>
