<svg xmlns="http://www.w3.org/2000/svg" viewBox="0 0 50.02 14.96">
    <defs>
        <style>
            .cls-1{
                fill:#fff;
            }
        </style>
    </defs>
    <title>Re-Events</title>
    <g id="Calque_2" data-name="Calque 2">
        <g id="Calque_1-2" data-name="Calque 1">
            <path class="cls-1" d="M8,6.73a1.5,1.5,0,0,1-.31.41,3,3,0,0,0-.45.46L7,7.82,6.83,8l-.09.08-.14.12s0,0,0,0l-.16.12L6,8.65,5.56,9a1.66,1.66,0,0,1-.3.19A1.17,1.17,0,0,0,5,9.31a1,1,0,0,0-.28.14.79.79,0,0,1-.24.15,4.14,4.14,0,0,1-.66.34,1,1,0,0,0-.36.22l-.11.09a.76.76,0,0,1-.29.11s-.07.05-.17.15a.59.59,0,0,1,.35.13h.19a.23.23,0,0,1,.13,0,.85.85,0,0,0,.28.1,2,2,0,0,1,.33.09.75.75,0,0,1,.29.06.6.6,0,0,0,.3.07L5,11l.18,0a2.11,2.11,0,0,1,.72.15H6l.35.09.19,0,.12,0,.11,0,.17,0,.22.05a1,1,0,0,1,.23.06,1.2,1.2,0,0,0,.4.11l.3.1.32.12a.63.63,0,0,0,.35.09A.27.27,0,0,1,9,12.1a.19.19,0,0,0,.13.13.15.15,0,0,1,.05.17.38.38,0,0,0,.08.26l.15.18q0,.12-.06.15l0,0c-.13,0-.21,0-.22,0a1.82,1.82,0,0,0-.54-.29l-.2-.08-.19-.09a1.18,1.18,0,0,0-.38-.09l-.19,0-.44-.15-.45-.11-.21,0-.2,0L5.87,12l-.18,0-.13,0-.22,0-.28-.05-.29-.06-.21,0-.33-.06L4,11.6H3.77l-.23,0-.37-.06a.42.42,0,0,1-.19,0,4,4,0,0,0-.92-.07H1.82a.74.74,0,0,1-.17,0c-.09,0-.14,0-.15.11a.4.4,0,0,1-.09.21.55.55,0,0,0-.06.4.37.37,0,0,1,0,.11s0,.06,0,.08a.69.69,0,0,1,0,.13,1.17,1.17,0,0,0-.13.35s0,.06,0,.11,0,.13,0,.23v.46a.53.53,0,0,1,0,.18,1.3,1.3,0,0,1,0,.23.13.13,0,0,1-.18.11L.76,14a.44.44,0,0,1-.15,0c-.16,0-.26-.1-.29-.2a1,1,0,0,0-.23-.22A.32.32,0,0,1,0,13.4V13S0,13,0,13a.92.92,0,0,1,0-.09,1.44,1.44,0,0,0,0-.24.62.62,0,0,1,.08-.24A9.09,9.09,0,0,1,.5,11.14a5.37,5.37,0,0,1,.28-1,2.25,2.25,0,0,0,0-.22,1,1,0,0,1,.08-.23,2.67,2.67,0,0,1,.15-.53l.09-.37a.81.81,0,0,1,0-.17l.08-.29c0-.08,0-.15.05-.21a.39.39,0,0,1,0-.18.38.38,0,0,0,0-.19c.06-.2.13-.47.2-.82v0c0-.09,0-.19.09-.31l.1-.42c0-.11.07-.22.1-.34A2.53,2.53,0,0,1,2,5.49a2,2,0,0,0,.09-.33l.09-.34a3.36,3.36,0,0,1,.11-.62l.15-.62c0-.16.07-.3.11-.42s.05-.21.08-.3,0-.14,0-.22,0-.19,0-.32V2.23a.21.21,0,0,1,.08-.17l.09,0a.15.15,0,0,1,.17,0,.45.45,0,0,0,.27,0c.07,0,.15,0,.25.11s0,.1,0,.11l0,.28s0,.06,0,.08a.13.13,0,0,0,0,.06A.66.66,0,0,1,3.5,3c0,.08,0,.18-.06.28s0,.23-.07.36l0,.1s0,0,0,.07a2.37,2.37,0,0,0-.11.5c0,.09,0,.16,0,.22l0,.15A1.11,1.11,0,0,0,3.08,5c0,.09,0,.18-.06.25a.49.49,0,0,1-.17.28.14.14,0,0,0,0,.09.78.78,0,0,1,0,.37V6s0,.06.06,0S3,6,3,6a1.19,1.19,0,0,0,.16-.23.91.91,0,0,1,.17-.23s.07,0,.13,0a.15.15,0,0,1,0,.13v0a.11.11,0,0,0,0,0v0a.06.06,0,0,0,.08,0,.17.17,0,0,0,.09-.1,2.2,2.2,0,0,1,.21-.32L4,5.06l.22-.3a2,2,0,0,1,.28-.31l.13-.13a6.32,6.32,0,0,1,.54-.64c.19-.2.39-.39.59-.58l.61-.59.48-.45.54-.44.46-.37L8,1.19c.21-.16.41-.29.6-.41A4,4,0,0,1,9.12.51.4.4,0,0,1,9.25.44.48.48,0,0,0,9.41.36L9.47.28h0s0,0,0,0A1.4,1.4,0,0,0,8.94.4a3.81,3.81,0,0,1-.46.22A4.27,4.27,0,0,1,8,.92l-.43.31a1.63,1.63,0,0,1-.37.28,1.66,1.66,0,0,0-.19.18l-.18.17s0,0,0,0l0,0a2.6,2.6,0,0,0-.32.26l-.14.11a3.9,3.9,0,0,1-.48.51l-.47.46-.34.35c-.09.1-.17.18-.23.26a4.14,4.14,0,0,1-.48.55,2.48,2.48,0,0,0-.25.3,4,4,0,0,0-.37.54l-.18.26a.08.08,0,0,1-.09,0c0-.06,0-.11,0-.13a.19.19,0,0,1,.07-.11,5.19,5.19,0,0,1,.58-.8c.24-.32.5-.62.76-.91s.54-.56.83-.83L6,2.49l.32-.33.36-.3A2.6,2.6,0,0,0,7,1.6a8.34,8.34,0,0,1,.65-.53c.22-.17.45-.33.68-.49A2.44,2.44,0,0,1,8.76.3L9.1.14,9.45,0a.92.92,0,0,1,.33,0,.3.3,0,0,1,.17,0,.21.21,0,0,0,.13.13.37.37,0,0,0,.2.11.31.31,0,0,1,.26.17l0,.06,0,.07.2.41a.43.43,0,0,1,.06.22,1.72,1.72,0,0,0,0,.28.43.43,0,0,1-.07.35.28.28,0,0,0,0,.13l.06.07a.5.5,0,0,1,0,.19l-.05.22a.79.79,0,0,0,0,.22,1.12,1.12,0,0,1,0,.24,1.84,1.84,0,0,1-.24.6,1.38,1.38,0,0,1-.14.3,2.59,2.59,0,0,0-.14.29.81.81,0,0,1-.11.2l-.26.32a.72.72,0,0,1-.15.11.72.72,0,0,0-.18.15l-.26.33-.18.26-.26.33a5.71,5.71,0,0,1-.5.54l0,0,0,0V6.27s0,0,.06-.09l.09-.1a6.07,6.07,0,0,0,.78-1,1.73,1.73,0,0,1,.13-.21,1.12,1.12,0,0,1,.18-.2.08.08,0,0,0,0,0l0,0v0s0-.06,0-.06a.09.09,0,0,0-.09,0,2,2,0,0,0-.28.43,5.58,5.58,0,0,1-.63.85A1.64,1.64,0,0,0,8.36,6a2.48,2.48,0,0,1-.25.3l-.24.26-.14.16a.87.87,0,0,0-.13.15l-.37.39c-.14.14-.3.28-.47.43a3.47,3.47,0,0,1-.37.3L6,8.25l-.56.41L5,9l-.32.21a5.11,5.11,0,0,0-.58.31A.16.16,0,0,0,4,9.58v0s0,0,0,0h.09l.24-.14.24-.12L5,9.12c.21-.12.4-.25.58-.37a5,5,0,0,0,.48-.37.92.92,0,0,1,.2-.19,2.62,2.62,0,0,0,.34-.25c.13-.12.28-.25.46-.39l.14-.14.15-.16.41-.44L8,6.64ZM.72,12.66c.09-.17.14-.29.17-.36s.06-.21.11-.42a.49.49,0,0,0,0-.13,1.3,1.3,0,0,1,.11-.31.15.15,0,0,0,0-.08s0,0,0-.09-.08,0-.08,0a2.24,2.24,0,0,0-.14.33c0,.11-.07.22-.1.33a2.14,2.14,0,0,1-.09.34,1.55,1.55,0,0,0,0,.31v.06Zm.76-2.8,0,0a0,0,0,0,1,0,0v0ZM2.3,6.79a.75.75,0,0,1,0-.26l.09-.26s0-.07,0-.09a.31.31,0,0,0,0-.1v0H2.39l-.11.34a1,1,0,0,1-.09.35.85.85,0,0,0,0,.24l0,.09,0,.13a2.07,2.07,0,0,1-.08.2A.53.53,0,0,0,2,7.6a.63.63,0,0,0-.05.22.43.43,0,0,1,0,.19.57.57,0,0,0-.09.31l-.22.89a.77.77,0,0,0,0,.19v.28l0,0a.3.3,0,0,1,.07-.19.3.3,0,0,0,.06-.2.22.22,0,0,1,0-.09.44.44,0,0,1,0-.1l.09-.26a1.07,1.07,0,0,0,.06-.27A2.28,2.28,0,0,0,2,8a.28.28,0,0,1,0-.12.23.23,0,0,0,0-.14.34.34,0,0,1,.07-.22.49.49,0,0,0,0-.13,2.3,2.3,0,0,0,.06-.28A2.12,2.12,0,0,1,2.3,6.79ZM10.23,1.1a1.11,1.11,0,0,0-.17-.52A.15.15,0,0,0,10,.51s0,0-.09,0l-.4.08a1.26,1.26,0,0,0-.36.14A.68.68,0,0,1,9,.78L8.82.84A.64.64,0,0,0,8.6,1a.36.36,0,0,1-.23.16l-.09.08-.07.05A.27.27,0,0,1,8,1.45a.46.46,0,0,0-.14.1.32.32,0,0,1-.1.11,2.35,2.35,0,0,1-.29.22A.69.69,0,0,0,7.36,2l-.08.08-.11.09A.38.38,0,0,1,7,2.33a1.17,1.17,0,0,0-.2.12l-1,1-.35.39L5,4.36l-.18.21-.23.29-.39.54A1.7,1.7,0,0,1,4,5.6a1.46,1.46,0,0,0-.18.2l-.32.48L3,7.1a4.63,4.63,0,0,0-.63,1.3,1.2,1.2,0,0,1-.1.19.46.46,0,0,0-.06.18,2.34,2.34,0,0,0-.09.37A3.34,3.34,0,0,1,2,9.56a2.1,2.1,0,0,1-.14.38V10c0,.09,0,.11.1.08a.14.14,0,0,0,.09,0l.26-.13a1.42,1.42,0,0,1,.3-.13s0,0,.07,0a4.59,4.59,0,0,1,.48-.26,3.08,3.08,0,0,0,.5-.28l.21-.11A.83.83,0,0,0,4.06,9l.24-.16a.85.85,0,0,0,.18-.1l.26-.15a1.84,1.84,0,0,0,.48-.43,3.79,3.79,0,0,1,.49-.5.83.83,0,0,1,.18-.13l.42-.34.43-.38.43-.42.43-.44.13-.14.14-.17c.25-.3.49-.59.71-.87A4.88,4.88,0,0,0,9.12,4l.2-.26.24-.28a.05.05,0,0,1,0,0,.16.16,0,0,0,0-.07l.19-.43c.06-.15.12-.29.17-.44s0-.11,0-.19A2,2,0,0,1,10.12,2a2,2,0,0,0,.09-.5.42.42,0,0,1,0-.19ZM8,12.1a1.29,1.29,0,0,1,.28.08l.31.11.06,0,0,0a.12.12,0,0,0,0-.11l-.21-.06A.45.45,0,0,1,8.23,12c-.15-.06-.4-.15-.75-.26L6.8,11.6l-.13,0a.59.59,0,0,0-.19-.05.43.43,0,0,1-.16,0,.86.86,0,0,0-.21,0,.43.43,0,0,1-.16,0,2,2,0,0,1-.5-.11l-.23,0L5,11.18l-.35-.08A2,2,0,0,1,4.32,11L4,11a1.5,1.5,0,0,1-.36-.11.4.4,0,0,0-.18,0s0,.08,0,.11,0,0,.07.06l.41.07.26.06.2,0a1.06,1.06,0,0,0,.36.09,1.06,1.06,0,0,1,.35.09,1,1,0,0,0,.28,0,2.15,2.15,0,0,0,.55.11l.09,0,.14,0a.57.57,0,0,0,.18,0,.37.37,0,0,1,.16,0,.53.53,0,0,0,.19.06l.26.08a1.27,1.27,0,0,0,.28,0l.15,0,.15.06.14,0a.94.94,0,0,1,.15.06A.74.74,0,0,0,8,12.1ZM10.12,3a.49.49,0,0,1,0,.17s0,0,0,.08L10,3.38a1.39,1.39,0,0,1-.06.13c-.06.15-.12.28-.17.39a1.5,1.5,0,0,1-.15.26s0,0,0,.09,0,0,.08,0L10,3.93a.85.85,0,0,1,.12-.26,1.71,1.71,0,0,0,.14-.27.38.38,0,0,0,0-.17c0-.11,0-.19-.08-.22l0,0Z"/><path class="cls-1" d="M12.43,6.6A.51.51,0,0,1,12.3,7a2.15,2.15,0,0,1-.46.44l-.17.13-.31.23A1.52,1.52,0,0,1,10.23,8h-.06a.09.09,0,0,0-.11,0l-.19.3c0,.12-.09.23-.12.32a1.49,1.49,0,0,0-.06.25,1.16,1.16,0,0,0,0,.8.2.2,0,0,0,.07.11l.21.15a.79.79,0,0,0,.66.11.33.33,0,0,1,.24,0s0,0,.11,0h.23l.27-.11.14,0,.09,0a4.16,4.16,0,0,1,.42-.23,3.37,3.37,0,0,0,.45-.25l.22-.17L13,9.07l.19-.2.16-.12.26-.24A1.55,1.55,0,0,1,14,8.16c.06,0,.1-.06.11-.1l.28-.31.07-.09c0-.08.13-.11.26-.11s.06,0,.06,0a.49.49,0,0,1,0,.13.86.86,0,0,0-.11.24,1,1,0,0,0-.1.17l-.09.18a.84.84,0,0,1-.1.22l-.15.28-.1.12a3,3,0,0,0-.25.23,1,1,0,0,0-.15.17.43.43,0,0,1-.12.11l-.22.16-.2.16,0,0s0,0,0,0a2.44,2.44,0,0,0-.52.29,1.73,1.73,0,0,1-.51.24l-.1,0-.14,0-.08,0a1.4,1.4,0,0,0-.5.15l-.15,0a.28.28,0,0,1-.13,0,1.45,1.45,0,0,0-.29,0l-.28-.05a.54.54,0,0,1-.28-.09,1.2,1.2,0,0,1-.33-.19c-.05,0-.08,0-.08-.05a.6.6,0,0,0-.14-.13L9.26,9.9l-.07-.07a.56.56,0,0,1-.13-.3,3.54,3.54,0,0,1-.15-.8A3.52,3.52,0,0,1,9,8l0-.17c0-.07.05-.16.09-.26a3.35,3.35,0,0,1,.5-.88c.07-.12.14-.21.19-.29a2,2,0,0,1,.16-.2l.15-.14a1.18,1.18,0,0,1,.68-.41l.09,0,.28-.07a2.11,2.11,0,0,1,.41-.06,1.32,1.32,0,0,1,.52.09.53.53,0,0,1,.22.23.83.83,0,0,1,.11.29c0,.06,0,.12,0,.18a.91.91,0,0,1,0,.17ZM11.88,6v0s0-.08-.1-.08L11.41,6a1.29,1.29,0,0,0-.52.48c-.07.12-.12.18-.15.19a.22.22,0,0,0-.07.17c-.05.15-.07.21-.05.2a.34.34,0,0,0-.13.17.35.35,0,0,1-.08.16.21.21,0,0,0,0,.12s0,.07,0,.07a.08.08,0,0,0,.06,0l.16,0,.19,0,.13-.06L11.47,7a.84.84,0,0,0,.41-.72V6Z"/>
            <path class="cls-1" d="M17.73,7.62l.19,0,.14,0a0,0,0,0,1,0,0,.17.17,0,0,0,.09.13l0,.1s0,0,0,0l.07.08v0s0,0,0,0,0,0,0,.09,0,.06-.08.06h-.3l-.28,0h-.22a.59.59,0,0,1-.22,0c-.27,0-.53,0-.79,0a2.51,2.51,0,0,0-.37,0l-.25,0h-.24a.14.14,0,0,1-.09,0h-.09l-.09,0a.28.28,0,0,1-.19-.07A.08.08,0,0,1,15,8.05a.67.67,0,0,1,0-.24l0,0,.12,0a.31.31,0,0,0,.12,0,.31.31,0,0,1,.17,0l.73,0,.73,0a.54.54,0,0,1,.2,0h.67Z"/>
            <path class="cls-1" d="M25,9.55s.07,0,.09,0l.36-.36.24-.27.13-.13c.14-.15.3-.3.45-.44l.47-.43a.1.1,0,0,0,0-.08v0l0,0a.28.28,0,0,0-.15,0L26.4,8s0,0-.07,0a.07.07,0,0,1,0,0l.1-.1.11-.09a.22.22,0,0,1,.15-.09s0,0,.09,0,.08,0,.09,0a.22.22,0,0,1,.22.1.06.06,0,0,1,0,.09l-.05,0-.16.14a.57.57,0,0,1-.14.13c-.15.15-.24.25-.28.3l-.2.19-.15.16L26,9l-.2.22-.18.18-.12.14,0,.05,0,0c-.08.05-.12.09-.13.13l-.26.3a2,2,0,0,0-.24.26,1.13,1.13,0,0,0-.21.24l-.07.09a.7.7,0,0,0-.22.2l-.1.1-.05.07a1.33,1.33,0,0,0-.19.22.09.09,0,0,1,0,.06s0,0,0,0l-.25.25a1.64,1.64,0,0,1-.25.21l-.07.05-.39.41a5.84,5.84,0,0,1-.58.47.11.11,0,0,1-.07,0l-.16.09-.19.12-.15.09a.09.09,0,0,0-.06,0h0l-.38.15a1.62,1.62,0,0,1-.55.17,2.51,2.51,0,0,1-.37,0,.66.66,0,0,1-.34-.09.9.9,0,0,1-.25-.08.25.25,0,0,1-.12-.07,1.19,1.19,0,0,1-.48-.46s-.05,0-.05-.08a.33.33,0,0,1-.07-.16.59.59,0,0,0,0-.17s0,0,0,0L19,12.14c0-.15,0-.28,0-.39a1.14,1.14,0,0,1,0-.28q0-.11,0-.24a2.1,2.1,0,0,1,.06-.24.23.23,0,0,1,0-.11l0-.11a3.58,3.58,0,0,0,.11-.35,2.29,2.29,0,0,1,.12-.37l.24-.67a.14.14,0,0,0,0-.09s-.06,0-.06,0q-.33.09-.3.06s-.11,0-.24,0l0,0-.11-.14a.44.44,0,0,0-.08-.1V9a.11.11,0,0,1,.07-.08.1.1,0,0,0,0-.09L19,8.71l.08-.07a1.15,1.15,0,0,1,.24-.19.82.82,0,0,0,.22-.15l.22-.15A1.16,1.16,0,0,1,20,8a.57.57,0,0,1,.09-.08l.24-.2a1.63,1.63,0,0,0,.13-.3c.09-.17.17-.35.26-.53s.18-.36.28-.54l.46-.88a2.76,2.76,0,0,1,.19-.37,1.31,1.31,0,0,0,.09-.17.83.83,0,0,1,.09-.16L22,4.52a.37.37,0,0,1,.07-.12l.29-.5.34-.53a.08.08,0,0,0,0,0,.08.08,0,0,1,0,0s0,0,0,0l0,0,0,0h-.06a1.39,1.39,0,0,1-.27.21,2.43,2.43,0,0,0-.25.2l-.13.12-.09.09L21.66,4a1.29,1.29,0,0,0-.17.15l-.13.13q0,.08-.18.21a.24.24,0,0,1-.13.05H21l-.09.08a.11.11,0,0,1-.15,0l-.11,0s-.06,0-.06,0a.35.35,0,0,1-.13-.15s0,0,0-.07V4.33a.59.59,0,0,1,.18-.41L21,3.59c.1-.1.22-.2.35-.31l.45-.34.3-.22.13-.08a1.27,1.27,0,0,1,.27-.18l.3-.17L23,2.11l.29-.17c.28-.17.46-.26.54-.3L24,1.58s.09,0,.2-.13l.39-.13.54-.22A.57.57,0,0,1,25.33,1,.82.82,0,0,0,25.57,1l.2-.06c.12,0,.18,0,.17,0l0,0,.06,0a.11.11,0,0,1,.07,0,.35.35,0,0,0,.24,0l0,0a.85.85,0,0,1,.22,0l.28,0h.26l.41,0a3.13,3.13,0,0,1,.5,0s0,0,.09,0,.33.19.48.26.14.11.15.14a.7.7,0,0,0,.15.19s0,0,0,.05a1.52,1.52,0,0,1,.16.37s0,.07,0,.1a.17.17,0,0,1,0,.07v.11a.83.83,0,0,1,0,.15.62.62,0,0,0,0,.13.1.1,0,0,1,0,.07L29,2.69a1.54,1.54,0,0,1-.23.41l-.13.19a.19.19,0,0,1-.09.11.09.09,0,0,1-.11,0s0,0,0-.06h-.1l0,0,0,0h-.09c-.08,0-.09-.06,0-.11a.38.38,0,0,1,.09-.13A.71.71,0,0,0,28.29,3c.06-.12.11-.24.16-.36s.07-.23.1-.34a.28.28,0,0,1,0-.09s0-.06,0-.1a1.23,1.23,0,0,0,0-.19.88.88,0,0,0,0-.23s0,0,0-.08a.28.28,0,0,0-.1-.09.72.72,0,0,0-.42-.09q-.07,0-.09,0a.51.51,0,0,0-.23,0h-.22a1.1,1.1,0,0,0-.24,0H27a.39.39,0,0,0-.18,0l-.3,0-.17.06-.13,0-.16.06-.15.07a1,1,0,0,1-.35.09l-.24.05A2.91,2.91,0,0,0,25,2a.38.38,0,0,1-.16.09.5.5,0,0,0-.21.13s-.06,0,0,.11a.11.11,0,0,0,0,.06s0,0,0,0v0a.09.09,0,0,0,0,.12s0,.07,0,.08l-.15.11a.78.78,0,0,1-.15.16l-.13.14L24,3.19a3.81,3.81,0,0,1-.24.32l-.24.29a.61.61,0,0,0-.17.23l-.05.07a1.31,1.31,0,0,0-.17.24,1.39,1.39,0,0,1-.15.22l-.15.21a1.13,1.13,0,0,1-.12.21l-.12.2-.13.18,0,.09,0,.08,0,0s0,0,0,0a1.12,1.12,0,0,0-.2.39.4.4,0,0,0-.09.17.27.27,0,0,0-.07.08l-.06.12-.07.12-.06.09,0,0a.24.24,0,0,1-.06.15l0,0a.1.1,0,0,0,0,0,.08.08,0,0,0,0,0l0,0a.08.08,0,0,0,0,0,.07.07,0,0,0,.06,0A1.57,1.57,0,0,0,22,6.84l.13-.06.15-.09.19-.09.2-.09a.34.34,0,0,1,.17-.08A.76.76,0,0,0,23,6.34l.36-.15.25-.09A1.19,1.19,0,0,1,23.82,6a1.09,1.09,0,0,0,.23-.09.12.12,0,0,1,.14,0,.17.17,0,0,0,.13,0s.07,0,.13.09a.28.28,0,0,0,.15.08c0,.07,0,.12,0,.13l-.28.16-.14.08-.31.15-.29.13,0,0h0a2.8,2.8,0,0,0-.52.23,1.36,1.36,0,0,1-.24.13l-.24.13-.14.1-.12.06c-.11.08-.22.14-.32.2a1.21,1.21,0,0,0-.29.19l-.15.08L21.4,8a.12.12,0,0,1-.08,0l-.07.06-.17.13L21,8.25a.2.2,0,0,1-.07.06l0,0a.13.13,0,0,0,0,.06.46.46,0,0,0-.11.18L20.56,9c-.06.15-.11.3-.16.45l-.19.43-.13.33a1.21,1.21,0,0,0,0,.18,1,1,0,0,0,0,.14.31.31,0,0,1,0,.13.14.14,0,0,1,0,.09,1.17,1.17,0,0,0-.11.28c0,.1-.05.19-.07.27s0,0,0,.1v.13a.24.24,0,0,1,0,.13.28.28,0,0,1,0,.13.2.2,0,0,0,0,.18.54.54,0,0,1,0,.17v.24a.27.27,0,0,0,.06.17s.05.06.11.09l.07,0a.77.77,0,0,0,.43,0l.28-.07.33-.12a.88.88,0,0,0,.24-.15l.39-.24a.47.47,0,0,0,.17-.09,3.12,3.12,0,0,1,.35-.25,3.12,3.12,0,0,0,.37-.29l.3-.22a2,2,0,0,1,.27-.22,2.27,2.27,0,0,0,.28-.26l0,0,0,0,.15-.13.18-.15.1-.09.14-.15.15-.09a.09.09,0,0,0,.09-.07s0,0,0-.05a.16.16,0,0,0,0-.07l.25-.14h0s0,0,0,0a.13.13,0,0,0,0,.08s0,0,0,.05-.06,0-.08.06a0,0,0,0,1,0,0v0s0,0,0,0l0,0s.05,0,.08-.05.05,0,.05-.06a.33.33,0,0,0,.17-.16s0,0,0-.08h0s0,0,.06,0,.06,0,.09-.11l0,0c.05,0,.07,0,.07-.08h0s.07,0,.07-.07Zm-5.3-.37,0,0v0Z"/>
            <path class="cls-1" d="M28.92,8.4,29,8a1.78,1.78,0,0,1,.17-.41,2.39,2.39,0,0,0,.15-.37c0-.12.1-.26.16-.4a1.65,1.65,0,0,1,.07-.2,2.39,2.39,0,0,1,.14-.31.58.58,0,0,1,.06-.15.93.93,0,0,0,.08-.2v0a0,0,0,0,1,0,0,0,0,0,0,0,0,0,3.07,3.07,0,0,0,.29-.57c.07-.19.14-.39.23-.62a2,2,0,0,0,.08-.24.91.91,0,0,1,.18-.31s.05,0,.07-.09a.25.25,0,0,1,.12,0s.06,0,.11,0a.46.46,0,0,1,.24,0c.1.06.1.11,0,.14a1,1,0,0,1-.17.28,2.59,2.59,0,0,0-.19.35l-.13.32a.62.62,0,0,1-.11.2l-.2.52a.67.67,0,0,1-.12.2.24.24,0,0,0-.08.19,1.6,1.6,0,0,1-.15.41l-.15.42a2.72,2.72,0,0,0-.23.5,5.21,5.21,0,0,1-.2.5,1.37,1.37,0,0,0-.13.39l-.2.53L29,9.51a.92.92,0,0,1-.09.24c-.07.14-.14.27-.19.39l-.18.37a2.86,2.86,0,0,1-.41.52.15.15,0,0,1-.13.07.73.73,0,0,1-.26,0A.59.59,0,0,1,27.4,11a.33.33,0,0,1-.26-.17,5,5,0,0,0-.37-.44s0,0,0,0,0,0,0-.06-.09-.26-.13-.39-.07-.27-.09-.4,0-.14,0-.19,0-.08,0-.11c0-.18,0-.33,0-.45a.62.62,0,0,1,0-.25,1.43,1.43,0,0,1,0-.26c0-.11,0-.24,0-.37a13.53,13.53,0,0,1,0-1.56V5.88a.51.51,0,0,1,0-.13,1.37,1.37,0,0,0,0-.56.23.23,0,0,1,.17-.29L27,4.8l.13.06a.15.15,0,0,1,0,.09l.13.23a.46.46,0,0,1,.09.33,2.74,2.74,0,0,0-.1.69c0,.23,0,.46-.05.68v.48a2.46,2.46,0,0,0,0,.28l0,.78a4.32,4.32,0,0,0,.08.79,2.16,2.16,0,0,1,0,.36.53.53,0,0,0,0,.13.66.66,0,0,1,0,.14,2.1,2.1,0,0,1,.09.5.4.4,0,0,0,0,.13.26.26,0,0,0,.22.19c.1,0,.17-.07.2-.24l.49-1a2.24,2.24,0,0,0,.2-.41Z"/>
            <path class="cls-1" d="M33.81,6.6a.51.51,0,0,1-.13.41,2.15,2.15,0,0,1-.46.44l-.17.13-.31.23A1.54,1.54,0,0,1,31.6,8h-.05a.09.09,0,0,0-.11,0l-.19.3c-.05.12-.09.23-.12.32a1.49,1.49,0,0,0-.06.25,1.16,1.16,0,0,0,0,.8.2.2,0,0,0,.07.11l.2.15a.82.82,0,0,0,.67.11.33.33,0,0,1,.24,0s0,0,.11,0h.22l.28-.11.14,0,.09,0a4.16,4.16,0,0,1,.42-.23A3.37,3.37,0,0,0,34,9.38l.22-.17.15-.14.19-.2.16-.12L35,8.51a1.55,1.55,0,0,1,.37-.35c.06,0,.1-.06.11-.1l.28-.31.07-.09c0-.08.12-.11.26-.11s.06,0,.06,0,0,.06,0,.13A.86.86,0,0,0,36,8a1,1,0,0,0-.1.17l-.09.18a1.38,1.38,0,0,1-.1.22,3.08,3.08,0,0,1-.16.28l-.09.12a3,3,0,0,0-.25.23L35,9.34a.29.29,0,0,1-.11.11l-.22.16-.2.16,0,0a0,0,0,0,0,0,0,2.22,2.22,0,0,0-.52.29,1.82,1.82,0,0,1-.52.24.19.19,0,0,1-.09,0l-.15,0a.1.1,0,0,1-.07,0,1.4,1.4,0,0,0-.5.15l-.15,0a.28.28,0,0,1-.13,0,1.55,1.55,0,0,0-.29,0l-.28-.05a.54.54,0,0,1-.28-.09,1.2,1.2,0,0,1-.33-.19c-.05,0-.08,0-.08-.05a.5.5,0,0,0-.15-.13l-.22-.17-.07-.07a.56.56,0,0,1-.13-.3,3.54,3.54,0,0,1-.15-.8A3.52,3.52,0,0,1,30.35,8l0-.17.08-.26A3.65,3.65,0,0,1,31,6.68a2.94,2.94,0,0,1,.19-.29,1.16,1.16,0,0,1,.16-.2l.15-.14a1.18,1.18,0,0,1,.68-.41l.09,0,.28-.07a2.11,2.11,0,0,1,.41-.06,1.32,1.32,0,0,1,.52.09.53.53,0,0,1,.22.23.83.83,0,0,1,.11.29,1.09,1.09,0,0,0,0,.18.91.91,0,0,1,0,.17ZM33.25,6v0s0-.08-.09-.08L32.79,6a1.29,1.29,0,0,0-.52.48c-.07.12-.12.18-.15.19a.19.19,0,0,0-.07.17C32,6.94,32,7,32,7a.38.38,0,0,0-.12.17.35.35,0,0,1-.08.16.21.21,0,0,0,0,.12c-.05,0,0,.07,0,.07l.06,0,.15,0,.2,0,.13-.06L32.85,7a.8.8,0,0,0,.4-.72V6Z"/>
            <path class="cls-1" d="M35.22,9.73c0-.13,0-.25,0-.36a.85.85,0,0,1,0-.25c0-.06,0-.14,0-.23a2.66,2.66,0,0,0,0-.34,17.7,17.7,0,0,1,.39-1.86l.22-.79a3.57,3.57,0,0,1,.11-.47.52.52,0,0,1,0-.11.48.48,0,0,0,0-.17A.28.28,0,0,1,36.18,5a.62.62,0,0,0,.19,0l.2,0h.13l0,0,.16.11.09.12v.29a1,1,0,0,0-.08.25c0,.09,0,.18,0,.25l-.3,1a1.27,1.27,0,0,0-.09.69s0,0,0,0,0,0,0,0l.07,0,.24-.37.35-.5.41-.57.48-.62a1,1,0,0,1,.14-.15.87.87,0,0,0,.16-.17.29.29,0,0,1,.22-.09.1.1,0,0,1,.09.06.1.1,0,0,0,.15.05h.09c.1,0,.16,0,.19.13l0,.15a.25.25,0,0,0,0,.13,1.26,1.26,0,0,1,.06.67s0,.1,0,.17a1.63,1.63,0,0,0,0,.24l0,.31a1.54,1.54,0,0,1,0,.3v.13a1.88,1.88,0,0,0-.05.33c0,.11,0,.22,0,.33a1.35,1.35,0,0,0,0,.28,2.49,2.49,0,0,0,.19.93l.07.13a.17.17,0,0,0,.12.09s.06,0,.12,0a.59.59,0,0,0,.52,0l.25-.1.14,0,0,0a0,0,0,0,0,0,0L41,9.07a4.6,4.6,0,0,0,.46-.43,5.42,5.42,0,0,0,.61-.76l.15-.17.17-.15h0s0,0,0,.06v.17a.69.69,0,0,1,0,.24c-.09.16-.17.32-.25.48a3.21,3.21,0,0,1-.29.46l-.27.31a1.34,1.34,0,0,1-.25.23l-.12.09-.08.11a1.47,1.47,0,0,1-.78.49,1.6,1.6,0,0,1-.72,0l-.1,0a.42.42,0,0,1-.14-.06,1.5,1.5,0,0,1-.86-.94,1.59,1.59,0,0,0-.07-.2,1.6,1.6,0,0,1-.05-.21,2.47,2.47,0,0,1-.08-.72,3.47,3.47,0,0,1,.06-.74V7.1a2.35,2.35,0,0,1,0-.26,1.57,1.57,0,0,1,0-.28s0-.1,0-.16a.77.77,0,0,0,0-.21s0,0,0,0h0L38,6.62a5.15,5.15,0,0,1-.47.67l0,.08a.79.79,0,0,1-.1.16,4.19,4.19,0,0,0-.31.5c-.09.17-.18.34-.25.5s-.14.25-.19.36a1.34,1.34,0,0,0-.12.25,3.4,3.4,0,0,0-.34.72,1,1,0,0,1-.13.28l-.16.37s0,.06-.08.06a.39.39,0,0,1-.31,0s0,0,0,0l0-.05-.06-.1-.05,0s-.09-.08-.11-.19Zm1.83-2.35,0,0,0,0v0s0,0,0,0,0,0,0,.09,0,0,0,0,0,0,0,0v0S37.05,7.42,37.05,7.38Zm.21-.26c.05,0,.07-.06.07-.13s.06,0,.07-.07.09,0,.12-.11,0,0,0-.06l0,0a.27.27,0,0,0,0,.17.06.06,0,0,0-.07,0,.14.14,0,0,0,0,.13s0,0,0,0Zm.39-.56s0,0,0,0,0,0,0,0h0l0,0Zm.22-.26,0,0h0s0,0,0,0h0ZM38,6.16a.05.05,0,0,1,0,0,.1.1,0,0,0,.07-.06s.06,0,.06-.13.07,0,.07-.07l.08-.06.07-.07a0,0,0,0,0,0,0l0,0a.07.07,0,0,0-.07,0l-.06.06-.07.07a.13.13,0,0,0-.08.13l0,0,0,0Z"/>
            <path class="cls-1" d="M47.33,1.75l-.21,0-.19,0h-.15l-.11,0-.3,0h-.43s0,0,0,0l0,0c.11,0,.17,0,.18-.06h.14a.42.42,0,0,0,.31,0h.07a.12.12,0,0,0,.1,0s.11,0,.24,0a.38.38,0,0,1,.26,0l.27,0a.74.74,0,0,1,.36.08l.13,0,.53.08,0,0h-.1l-.08,0-.1,0L48,1.56a.51.51,0,0,1-.26-.07l-.22-.06-.17,0a1.65,1.65,0,0,0-.32-.06l-.4,0h-.06a.28.28,0,0,1-.18,0l-.17,0h-.18a.31.31,0,0,0-.19,0s-.06,0-.12,0l-.19,0h-.13l-.17,0-.56.07-.13,0c-.06.05-.08.08-.07.09v0a.4.4,0,0,0-.13.06h0s0,0,0,0a.05.05,0,0,0,0,0l.31-.07h0s0,0,0,0h.42l.17,0,0,0v.05s0,0,0,0L45,1.82a1.55,1.55,0,0,1-.31.06l-.34.05L44,2s-.08,0-.09.12a4.26,4.26,0,0,0-.17.77c0,.09,0,.17-.06.25a2,2,0,0,1,0,.24.54.54,0,0,0,0,.22c0,.13,0,.25,0,.34s0,.17-.06.23l-.06.3s0,.25-.1.59-.14.84-.27,1.48A1.11,1.11,0,0,0,43,6.8c0,.06,0,.13,0,.19l0,.22a1.45,1.45,0,0,0,0,.28l0,.26c0,.07,0,.17,0,.28s0,.24,0,.39a.52.52,0,0,0,0,.21.52.52,0,0,1,0,.21V8.9a2.68,2.68,0,0,1,0,.4c0,.13,0,.26,0,.4a.75.75,0,0,0,0,.2.32.32,0,0,0,0,.17,3.45,3.45,0,0,1,0,.46,2.53,2.53,0,0,0,0,.28,1.93,1.93,0,0,1,0,.24.47.47,0,0,1,0,.16c0,.15,0,.28,0,.39s0,.21,0,.28,0,.26.06.36a1,1,0,0,0,.07.25,1,1,0,0,1,.1.27,1,1,0,0,0,.1.27,3.4,3.4,0,0,0,.24.5.15.15,0,0,0,.06.09,1,1,0,0,0,.37.47l.25.18a2.2,2.2,0,0,0,.25.17l.24.15a.71.71,0,0,0,.5.09l.37-.09s0,0,0,0v.13a.08.08,0,0,1,0,.06l0,0-.2.07a1.67,1.67,0,0,1-.26.06l-.21,0-.13,0a1.2,1.2,0,0,1-.48-.19.44.44,0,0,0-.13-.09l-.12-.07a.44.44,0,0,1-.1-.08s-.13,0-.28-.14a.83.83,0,0,0-.26-.19.21.21,0,0,1-.05-.09A.79.79,0,0,0,43,13.9a.42.42,0,0,1-.13-.2,1.29,1.29,0,0,1-.09-.16,1.34,1.34,0,0,1-.07-.18,2,2,0,0,1-.23-.51,5.34,5.34,0,0,0-.18-.52,2.86,2.86,0,0,1-.15-.67c0-.17,0-.32-.06-.45s0-.22,0-.31a2.81,2.81,0,0,1-.06-.59v-.22a1.47,1.47,0,0,0,0-.28V9.62c0-.08,0-.2,0-.33V9.2a.74.74,0,0,1,0-.12A.34.34,0,0,0,42,9a.3.3,0,0,1,0-.13.87.87,0,0,0,0-.23.87.87,0,0,1,0-.23,1.16,1.16,0,0,0,0-.43.85.85,0,0,0,.05-.25l0-.27a1.24,1.24,0,0,1,0-.22l0-.17a.23.23,0,0,0,0-.11c0-.08,0-.24.08-.48s.09-.54.16-.92l.3-1.43.15-.65A2.57,2.57,0,0,1,43,2.75a1.91,1.91,0,0,1,0-.28V2.41s0-.05,0-.05a.11.11,0,0,0-.06,0l-.14,0a.34.34,0,0,1-.13,0,.67.67,0,0,0-.17.06.42.42,0,0,1-.15,0,.79.79,0,0,0-.23.09.88.88,0,0,1-.2.09l-.22.15a.19.19,0,0,1-.05.09l-.71.47-.13,0a.18.18,0,0,1-.05.07l-.06,0s-.12.09-.33.19c0,0-.08,0-.11-.08s0-.09,0-.11V3.45a1.86,1.86,0,0,1,.09-.33l.1-.08.27-.16a.45.45,0,0,0,.17-.1,1.42,1.42,0,0,1,.22-.14l.28-.15.18-.1a2.43,2.43,0,0,1,.28-.14l.13-.07a.29.29,0,0,0,.13-.08l.4-.16.42-.14.28-.09s.08-.06.11-.15l.2-.78a1,1,0,0,0,.15-.44s0,0,0,0a.14.14,0,0,0,.16,0h.11a.69.69,0,0,1,.17.11.82.82,0,0,1,.07.37l0,.25a2,2,0,0,0,0,.23v0a0,0,0,0,0,0,0h.07l.08,0,.09-.05.33,0A1.11,1.11,0,0,0,45,1.23h.25l.25,0a2.67,2.67,0,0,1,.61,0l.27,0a1.22,1.22,0,0,0,.27,0H47a1.24,1.24,0,0,1,.33,0l.19.05.2,0,.15,0,.2,0,.1,0h.1a.11.11,0,0,0,.06,0l.7.24.27.1.31.14.26.17a.45.45,0,0,1,.16.2.27.27,0,0,1,0,.24.24.24,0,0,1,0,.1s0,0,0,0h-.09q-.14,0-.15-.12a.35.35,0,0,0-.15-.13,1.34,1.34,0,0,1-.26-.08l-.22-.1,0,0-.26-.07L48.54,2a1.18,1.18,0,0,1-.37-.11.72.72,0,0,1-.32-.05l-.24-.08a.39.39,0,0,1-.15,0ZM42,2.32v0H42l-.39.23s0,0,0,0a.05.05,0,0,0,0,0l.11,0L42,2.4l0,0s0,0,0,0Zm.66-.22.08,0s0,0,0,0h0s0,0,0,0h0A.54.54,0,0,0,43.11,2c.06,0,.09,0,.09-.13v0h-.13l-.15.05-.09,0-.07,0-.18.06-.23.12v0s0,0,0,0h.09a.37.37,0,0,0,.17-.11Z"/>
            <path class="cls-1" d="M44.11,10.66c0-.06,0-.14,0-.22l.09-.3a4.82,4.82,0,0,0,.27-.5,2,2,0,0,1,.35-.48L45,9.07a.17.17,0,0,0,0-.13l-.13-.06-.13-.07c-.09-.07-.14-.12-.14-.17s-.08,0-.08-.06a1.32,1.32,0,0,0-.21-.23.4.4,0,0,1-.14-.27.25.25,0,0,0,0-.14.27.27,0,0,1,0-.12,2.22,2.22,0,0,1,.22-1.14l.09-.18a.61.61,0,0,1,.11-.16A3,3,0,0,0,44.81,6a2.81,2.81,0,0,1,.39-.36l.48-.36a2.8,2.8,0,0,1,.5-.31,2.43,2.43,0,0,1,.39-.18,4.73,4.73,0,0,1,.56-.17,1.69,1.69,0,0,1,.95,0l.22.13a.54.54,0,0,1,.11.24.62.62,0,0,1-.09.36l-.23.34a2.25,2.25,0,0,1-.24.3.87.87,0,0,0-.18.23l-.24.29a1.9,1.9,0,0,0-.34.45A.19.19,0,0,1,47,7a.49.49,0,0,0-.17,0h-.09l-.13,0-.13,0s0,0,0,0a.45.45,0,0,1,.06-.26L47,6.17c.13-.15.25-.27.35-.37l.42-.48A.59.59,0,0,0,47.87,5s0-.07-.09-.09a.49.49,0,0,0-.23.07.3.3,0,0,0-.1.05.1.1,0,0,1-.08,0c-.08,0-.12,0-.13.07a2,2,0,0,1-.56.34h0l0,0,0,0-.22.17-.31.26-.3.22-.28.24-.21.22a2.39,2.39,0,0,0-.5.72.54.54,0,0,0,0,.15.26.26,0,0,0,0,.19v.11a.73.73,0,0,0,.39.72s0,0,0,0a.76.76,0,0,0,.16.11l.16.07.11-.09a1.89,1.89,0,0,1,.36-.22H46A.21.21,0,0,1,46,8.32l.15-.07,0,0,0,0h0l0,0L46.55,8l.32-.2L47,7.71l.15-.07.11-.08.11,0,.3-.17,0,0,.18,0H48l.06,0,0,0,0,0a.15.15,0,0,1,0,.08l-.1,0,0,0-.08,0-.07,0-.21.13-.16.08-.14.07-.1.06a.28.28,0,0,1-.11.07A.1.1,0,0,1,47,8l0,.05h0a.09.09,0,0,1-.06,0l-.15.09-.12.09a.6.6,0,0,1-.08.08h0l-.15.08a.75.75,0,0,1-.14.12l-.14.08a.45.45,0,0,0-.14.11c-.07.05-.1.07-.12.07l-.07,0,.39.35,0,0a1,1,0,0,1,.22.6V9.9a6.25,6.25,0,0,1-.33.72.41.41,0,0,1-.17.13H45.8c.11.06,0,.21-.19.45a1.94,1.94,0,0,1-.54.44.26.26,0,0,1-.18.09c-.08,0-.12,0-.13.08a.41.41,0,0,1-.17,0h-.11a1,1,0,0,1-.28-.21c-.06,0-.09-.11-.09-.22A4.3,4.3,0,0,1,44.11,10.66Zm.26.3a.34.34,0,0,1,0,.1.41.41,0,0,0,0,.12c0,.17.14.23.35.18l.15-.11.14-.18a.88.88,0,0,0,.14-.23.71.71,0,0,0,.09-.15s0,0,0,0a3.76,3.76,0,0,0,.39-.67l.09-.3a.54.54,0,0,0-.14-.42c-.13-.11-.21-.16-.25-.13a.3.3,0,0,1-.09.1l-.11.1L45,9.48,45,9.57l-.05.07a.3.3,0,0,0-.11.16.29.29,0,0,1-.12.14l0,.27a0,0,0,0,0,0,0l0,0s0,0,0,0a2.25,2.25,0,0,0-.08.24q0,.1-.06.24S44.42,10.83,44.37,11ZM45.5,8.73l0,0s0,0,.07,0v0l.12-.08a.47.47,0,0,0,.12-.09,1.16,1.16,0,0,0,.21-.15l0,0s0,0,.08,0a.13.13,0,0,0,0-.08h0l0,0,0,0,0,0H46.2l0,.06a.58.58,0,0,1-.2.11s0,0,0,0,0,0,0,0a.46.46,0,0,1-.18.11l-.17.15-.07,0Zm.68-3.3-.42.3,0,0,0,0s-.05,0-.05.06v.06h.05l.2-.12L46,5.71l.24-.2a.13.13,0,0,0,0-.08Zm.15,2.75h0a.05.05,0,0,0,.06-.06h.05v0h0l0,0s0,0-.06.06Zm.11,0h0v0l0,0h0s0,0,0,0Zm0-2.9-.09,0v.06s0,0,0,0a.25.25,0,0,0,0-.09s0,0,0,0Zm.08,2.77h0l0,0,0,0Z"/>
        </g>
    </g>
</svg>